<mxfile host="app.diagrams.net" modified="2024-04-30T04:22:10.446Z" agent="Mozilla/5.0 (Windows NT 10.0; Win64; x64) AppleWebKit/537.36 (KHTML, like Gecko) Chrome/124.0.0.0 Safari/537.36" etag="CkO6NnVaybZYhxBXsW-i" version="24.3.1" type="device">
  <diagram name="Page-1" id="8378b5f6-a2b2-b727-a746-972ab9d02e00">
    <mxGraphModel dx="1430" dy="763" grid="1" gridSize="10" guides="1" tooltips="1" connect="0" arrows="1" fold="1" page="1" pageScale="1.5" pageWidth="1169" pageHeight="827" background="none" math="0" shadow="0">
      <root>
        <mxCell id="0" />
        <mxCell id="1" parent="0" />
        <mxCell id="63" value="1" style="strokeColor=#DEEDFF;fillColor=#ADC3D9" parent="1" vertex="1">
          <mxGeometry x="868.5" y="420" width="40" height="20" as="geometry" />
        </mxCell>
        <mxCell id="64" value="Complete project execution" style="align=left;strokeColor=#DEEDFF;fillColor=#ADC3D9" parent="1" vertex="1">
          <mxGeometry x="908.5" y="420" width="320" height="20" as="geometry" />
        </mxCell>
        <mxCell id="66" value="" style="strokeColor=#DEEDFF;fillColor=#ADC3D9" parent="1" vertex="1">
          <mxGeometry x="1228.500000000002" y="420" width="80.00000000000028" height="20" as="geometry" />
        </mxCell>
        <mxCell id="67" value="" style="strokeColor=#DEEDFF;fillColor=#ADC3D9" parent="1" vertex="1">
          <mxGeometry x="1308.5000000000016" y="420.0000000000002" width="80.00000000000028" height="20" as="geometry" />
        </mxCell>
        <mxCell id="69" value="2" style="strokeColor=#DEEDFF;fillColor=#CCE5FF" parent="1" vertex="1">
          <mxGeometry x="868.5000000000002" y="439.9999999999999" width="40" height="20" as="geometry" />
        </mxCell>
        <mxCell id="70" value="admin-user-interfaces" style="align=left;strokeColor=#DEEDFF;fillColor=#CCE5FF" parent="1" vertex="1">
          <mxGeometry x="908.5000000000002" y="439.9999999999999" width="319.9999999999998" height="20" as="geometry" />
        </mxCell>
        <mxCell id="72" value="" style="strokeColor=#DEEDFF;fillColor=#CCE5FF" parent="1" vertex="1">
          <mxGeometry x="1228.5000000000023" y="439.99999999999983" width="80.00000000000028" height="20" as="geometry" />
        </mxCell>
        <mxCell id="73" value="" style="strokeColor=#DEEDFF;fillColor=#CCE5FF" parent="1" vertex="1">
          <mxGeometry x="1308.5000000000018" y="440.0000000000001" width="80.00000000000028" height="20" as="geometry" />
        </mxCell>
        <mxCell id="74" value="3" style="strokeColor=#DEEDFF" parent="1" vertex="1">
          <mxGeometry x="868.5000000000002" y="459.9999999999998" width="40" height="20" as="geometry" />
        </mxCell>
        <mxCell id="75" value="User &amp; Admin class initial setup" style="align=left;strokeColor=#DEEDFF" parent="1" vertex="1">
          <mxGeometry x="908.5000000000002" y="459.9999999999998" width="319.9999999999997" height="20.000000000000014" as="geometry" />
        </mxCell>
        <mxCell id="77" value="Apr 29" style="strokeColor=#DEEDFF" parent="1" vertex="1">
          <mxGeometry x="1228.5000000000023" y="459.9999999999997" width="80.00000000000028" height="20" as="geometry" />
        </mxCell>
        <mxCell id="78" value="Apr 29" style="strokeColor=#DEEDFF" parent="1" vertex="1">
          <mxGeometry x="1308.5000000000018" y="460" width="80.00000000000028" height="20" as="geometry" />
        </mxCell>
        <mxCell id="79" value="4" style="strokeColor=#DEEDFF" parent="1" vertex="1">
          <mxGeometry x="868.5" y="480.00000000000017" width="40" height="20" as="geometry" />
        </mxCell>
        <mxCell id="80" value="input validation - email format &amp; password requirements" style="align=left;strokeColor=#DEEDFF" parent="1" vertex="1">
          <mxGeometry x="908.5" y="480.00000000000017" width="320" height="20" as="geometry" />
        </mxCell>
        <mxCell id="82" value="Apr 29" style="strokeColor=#DEEDFF" parent="1" vertex="1">
          <mxGeometry x="1228.500000000002" y="480.0000000000001" width="80.00000000000028" height="20" as="geometry" />
        </mxCell>
        <mxCell id="83" value="Apr 30" style="strokeColor=#DEEDFF" parent="1" vertex="1">
          <mxGeometry x="1308.5000000000014" y="480.0000000000004" width="80.00000000000028" height="20" as="geometry" />
        </mxCell>
        <mxCell id="84" value="5" style="strokeColor=#DEEDFF" parent="1" vertex="1">
          <mxGeometry x="868.4999999999999" y="500.00000000000017" width="40" height="20" as="geometry" />
        </mxCell>
        <mxCell id="85" value="user menus - (access/change account details)" style="align=left;strokeColor=#DEEDFF" parent="1" vertex="1">
          <mxGeometry x="908.4999999999999" y="500.00000000000017" width="320.0000000000001" height="20" as="geometry" />
        </mxCell>
        <mxCell id="9tf3NSUqnuniqDZa3T5g-255" value="" style="edgeStyle=orthogonalEdgeStyle;rounded=0;orthogonalLoop=1;jettySize=auto;html=1;" parent="1" source="87" target="95" edge="1">
          <mxGeometry relative="1" as="geometry" />
        </mxCell>
        <mxCell id="87" value="Apr 30" style="strokeColor=#DEEDFF" parent="1" vertex="1">
          <mxGeometry x="1228.5000000000018" y="500.0000000000001" width="80.00000000000028" height="20" as="geometry" />
        </mxCell>
        <mxCell id="88" value="May 1" style="strokeColor=#DEEDFF" parent="1" vertex="1">
          <mxGeometry x="1308.5000000000014" y="500.0000000000004" width="80.00000000000028" height="20" as="geometry" />
        </mxCell>
        <mxCell id="89" value="6" style="strokeColor=#DEEDFF" parent="1" vertex="1">
          <mxGeometry x="868.4999999999999" y="520.0000000000005" width="40" height="20" as="geometry" />
        </mxCell>
        <mxCell id="90" value="admin menus - (add/remove/view/change/promote user)" style="align=left;strokeColor=#DEEDFF" parent="1" vertex="1">
          <mxGeometry x="908.4999999999999" y="520.0000000000005" width="320.0000000000001" height="20" as="geometry" />
        </mxCell>
        <mxCell id="92" value="May 1" style="strokeColor=#DEEDFF" parent="1" vertex="1">
          <mxGeometry x="1228.5000000000018" y="520.0000000000003" width="80.00000000000028" height="20" as="geometry" />
        </mxCell>
        <mxCell id="93" value="May 3" style="strokeColor=#DEEDFF" parent="1" vertex="1">
          <mxGeometry x="1308.5000000000014" y="520.0000000000007" width="80.00000000000028" height="20" as="geometry" />
        </mxCell>
        <mxCell id="94" value="7" style="strokeColor=#DEEDFF" parent="1" vertex="1">
          <mxGeometry x="868.5000000000007" y="540.0000000000007" width="40" height="20" as="geometry" />
        </mxCell>
        <mxCell id="95" value="integration" style="align=left;strokeColor=#DEEDFF" parent="1" vertex="1">
          <mxGeometry x="908.5000000000007" y="540.0000000000007" width="319.9999999999994" height="20" as="geometry" />
        </mxCell>
        <mxCell id="97" value="May 5" style="strokeColor=#DEEDFF" parent="1" vertex="1">
          <mxGeometry x="1228.5000000000027" y="540.0000000000007" width="80.00000000000028" height="20" as="geometry" />
        </mxCell>
        <mxCell id="98" value="May 5" style="strokeColor=#DEEDFF" parent="1" vertex="1">
          <mxGeometry x="1308.5000000000023" y="540.0000000000009" width="80.00000000000028" height="20" as="geometry" />
        </mxCell>
        <mxCell id="99" value="8" style="strokeColor=#DEEDFF" parent="1" vertex="1">
          <mxGeometry x="868.5000000000007" y="560.0000000000006" width="40" height="20" as="geometry" />
        </mxCell>
        <mxCell id="100" value="cleanup/documentation finalization" style="align=left;strokeColor=#DEEDFF" parent="1" vertex="1">
          <mxGeometry x="908.5000000000007" y="560.0000000000006" width="319.9999999999994" height="20" as="geometry" />
        </mxCell>
        <mxCell id="102" value="May 5" style="strokeColor=#DEEDFF" parent="1" vertex="1">
          <mxGeometry x="1228.5000000000027" y="560.0000000000006" width="80.00000000000028" height="20" as="geometry" />
        </mxCell>
        <mxCell id="103" value="Jun 9" style="strokeColor=#DEEDFF" parent="1" vertex="1">
          <mxGeometry x="1308.5000000000023" y="560.0000000000008" width="80.00000000000028" height="20" as="geometry" />
        </mxCell>
        <mxCell id="104" value="9" style="strokeColor=#DEEDFF;fillColor=#CCE5FF" parent="1" vertex="1">
          <mxGeometry x="868.5000000000003" y="580.000000000001" width="40" height="20" as="geometry" />
        </mxCell>
        <mxCell id="105" value="Survey questions" style="align=left;strokeColor=#DEEDFF;fillColor=#CCE5FF" parent="1" vertex="1">
          <mxGeometry x="908.5000000000003" y="580.000000000001" width="319.99999999999966" height="20.00000000000003" as="geometry" />
        </mxCell>
        <mxCell id="107" value="" style="strokeColor=#DEEDFF;fillColor=#CCE5FF" parent="1" vertex="1">
          <mxGeometry x="1228.5000000000025" y="580.0000000000009" width="80.00000000000028" height="20" as="geometry" />
        </mxCell>
        <mxCell id="108" value="" style="strokeColor=#DEEDFF;fillColor=#CCE5FF" parent="1" vertex="1">
          <mxGeometry x="1308.5000000000018" y="580.0000000000013" width="80.00000000000028" height="20" as="geometry" />
        </mxCell>
        <mxCell id="109" value="10" style="strokeColor=#DEEDFF" parent="1" vertex="1">
          <mxGeometry x="868.5000000000002" y="600.000000000001" width="40" height="20" as="geometry" />
        </mxCell>
        <mxCell id="110" value="Create survey class" style="align=left;strokeColor=#DEEDFF" parent="1" vertex="1">
          <mxGeometry x="908.5000000000002" y="600.000000000001" width="319.9999999999997" height="20" as="geometry" />
        </mxCell>
        <mxCell id="112" value="Apr 29" style="strokeColor=#DEEDFF" parent="1" vertex="1">
          <mxGeometry x="1228.5000000000023" y="600.0000000000009" width="80.00000000000028" height="20" as="geometry" />
        </mxCell>
        <mxCell id="113" value="30" style="strokeColor=#DEEDFF" parent="1" vertex="1">
          <mxGeometry x="1308.5000000000018" y="600.0000000000013" width="80.00000000000028" height="20" as="geometry" />
        </mxCell>
        <mxCell id="114" value="11" style="strokeColor=#DEEDFF" parent="1" vertex="1">
          <mxGeometry x="868.5000000000002" y="620.0000000000013" width="40" height="20" as="geometry" />
        </mxCell>
        <mxCell id="115" value="- edit created surveys" style="align=left;strokeColor=#DEEDFF" parent="1" vertex="1">
          <mxGeometry x="908.5000000000002" y="620.0000000000013" width="319.9999999999997" height="20" as="geometry" />
        </mxCell>
        <mxCell id="117" value="Apr 30" style="strokeColor=#DEEDFF" parent="1" vertex="1">
          <mxGeometry x="1228.5000000000023" y="620.0000000000011" width="80.00000000000028" height="20" as="geometry" />
        </mxCell>
        <mxCell id="118" value="May 1" style="strokeColor=#DEEDFF" parent="1" vertex="1">
          <mxGeometry x="1308.5000000000018" y="620.0000000000015" width="80.00000000000028" height="20" as="geometry" />
        </mxCell>
        <mxCell id="119" value="12" style="strokeColor=#DEEDFF" parent="1" vertex="1">
          <mxGeometry x="868.5" y="640.0000000000016" width="40" height="20" as="geometry" />
        </mxCell>
        <mxCell id="120" value="publish surveys to survey database" style="align=left;strokeColor=#DEEDFF" parent="1" vertex="1">
          <mxGeometry x="908.5" y="640.0000000000016" width="320" height="20" as="geometry" />
        </mxCell>
        <mxCell id="122" value="May 1" style="strokeColor=#DEEDFF" parent="1" vertex="1">
          <mxGeometry x="1228.500000000002" y="640.0000000000015" width="80.00000000000028" height="20" as="geometry" />
        </mxCell>
        <mxCell id="123" value="May 2" style="strokeColor=#DEEDFF" parent="1" vertex="1">
          <mxGeometry x="1308.5000000000014" y="640.0000000000018" width="80.00000000000028" height="20" as="geometry" />
        </mxCell>
        <mxCell id="124" value="13" style="strokeColor=#DEEDFF" parent="1" vertex="1">
          <mxGeometry x="868.5" y="660.0000000000014" width="40" height="20" as="geometry" />
        </mxCell>
        <mxCell id="125" value="" style="align=left;strokeColor=#DEEDFF" parent="1" vertex="1">
          <mxGeometry x="908.5" y="660.0000000000014" width="320" height="20" as="geometry" />
        </mxCell>
        <mxCell id="127" value="" style="strokeColor=#DEEDFF" parent="1" vertex="1">
          <mxGeometry x="1228.500000000002" y="660.0000000000014" width="80.00000000000028" height="20" as="geometry" />
        </mxCell>
        <mxCell id="128" value="" style="strokeColor=#DEEDFF" parent="1" vertex="1">
          <mxGeometry x="1308.5000000000014" y="660.0000000000016" width="80.00000000000028" height="20" as="geometry" />
        </mxCell>
        <mxCell id="129" value="14" style="strokeColor=#DEEDFF" parent="1" vertex="1">
          <mxGeometry x="868.4999999999998" y="680.0000000000018" width="40" height="20" as="geometry" />
        </mxCell>
        <mxCell id="130" value="" style="align=left;strokeColor=#DEEDFF" parent="1" vertex="1">
          <mxGeometry x="908.4999999999998" y="680.0000000000018" width="320.0000000000003" height="20" as="geometry" />
        </mxCell>
        <mxCell id="132" value="" style="strokeColor=#DEEDFF" parent="1" vertex="1">
          <mxGeometry x="1228.5000000000018" y="680.0000000000018" width="80.00000000000028" height="20" as="geometry" />
        </mxCell>
        <mxCell id="133" value="" style="strokeColor=#DEEDFF" parent="1" vertex="1">
          <mxGeometry x="1308.5000000000011" y="680.000000000002" width="80.00000000000028" height="20" as="geometry" />
        </mxCell>
        <mxCell id="134" value="15" style="strokeColor=#DEEDFF;fillColor=#FFFFFF" parent="1" vertex="1">
          <mxGeometry x="868.4999999999997" y="700.0000000000018" width="40" height="20" as="geometry" />
        </mxCell>
        <mxCell id="135" value="" style="align=left;strokeColor=#DEEDFF;fillColor=#FFFFFF" parent="1" vertex="1">
          <mxGeometry x="908.4999999999997" y="700.0000000000018" width="320.00000000000034" height="20" as="geometry" />
        </mxCell>
        <mxCell id="137" value="" style="strokeColor=#DEEDFF;fillColor=#FFFFFF" parent="1" vertex="1">
          <mxGeometry x="1228.5000000000016" y="700.0000000000018" width="80.00000000000028" height="20" as="geometry" />
        </mxCell>
        <mxCell id="138" value="" style="strokeColor=#DEEDFF;fillColor=#FFFFFF" parent="1" vertex="1">
          <mxGeometry x="1308.5000000000011" y="700.000000000002" width="80.00000000000028" height="20" as="geometry" />
        </mxCell>
        <mxCell id="139" value="16" style="strokeColor=#DEEDFF;fillColor=#CCE5FF" parent="1" vertex="1">
          <mxGeometry x="868.4999999999995" y="720.000000000002" width="40" height="20" as="geometry" />
        </mxCell>
        <mxCell id="140" value="User survey completion" style="align=left;strokeColor=#DEEDFF;fillColor=#CCE5FF" parent="1" vertex="1">
          <mxGeometry x="908.4999999999995" y="720.000000000002" width="320.0000000000004" height="20" as="geometry" />
        </mxCell>
        <mxCell id="142" value="" style="strokeColor=#DEEDFF;fillColor=#CCE5FF" parent="1" vertex="1">
          <mxGeometry x="1228.5000000000016" y="720.000000000002" width="80.00000000000028" height="20" as="geometry" />
        </mxCell>
        <mxCell id="143" value="" style="strokeColor=#DEEDFF;fillColor=#CCE5FF" parent="1" vertex="1">
          <mxGeometry x="1308.5000000000011" y="720.0000000000023" width="80.00000000000028" height="20" as="geometry" />
        </mxCell>
        <mxCell id="144" value="17" style="strokeColor=#DEEDFF" parent="1" vertex="1">
          <mxGeometry x="868.500000000001" y="740.0000000000023" width="40" height="20" as="geometry" />
        </mxCell>
        <mxCell id="145" value="print survey seleccted by user" style="align=left;strokeColor=#DEEDFF" parent="1" vertex="1">
          <mxGeometry x="908.500000000001" y="740.0000000000023" width="319.999999999999" height="20" as="geometry" />
        </mxCell>
        <mxCell id="147" value="May 1" style="strokeColor=#DEEDFF" parent="1" vertex="1">
          <mxGeometry x="1228.500000000003" y="740.0000000000023" width="80.00000000000028" height="20" as="geometry" />
        </mxCell>
        <mxCell id="148" value="May 2" style="strokeColor=#DEEDFF;direction=west;" parent="1" vertex="1">
          <mxGeometry x="1308.5000000000025" y="740.0000000000025" width="80.00000000000028" height="20" as="geometry" />
        </mxCell>
        <mxCell id="149" value="18" style="strokeColor=#DEEDFF" parent="1" vertex="1">
          <mxGeometry x="868.500000000001" y="760.0000000000022" width="40" height="20" as="geometry" />
        </mxCell>
        <mxCell id="150" value="Interaction between user and survey" style="align=left;strokeColor=#DEEDFF" parent="1" vertex="1">
          <mxGeometry x="908.500000000001" y="760.0000000000022" width="319.999999999999" height="20" as="geometry" />
        </mxCell>
        <mxCell id="152" value="" style="strokeColor=#DEEDFF" parent="1" vertex="1">
          <mxGeometry x="1228.500000000003" y="760.000000000002" width="80.00000000000028" height="20" as="geometry" />
        </mxCell>
        <mxCell id="153" value="" style="strokeColor=#DEEDFF" parent="1" vertex="1">
          <mxGeometry x="1308.5000000000025" y="760.0000000000024" width="80.00000000000028" height="20" as="geometry" />
        </mxCell>
        <mxCell id="154" value="19" style="strokeColor=#DEEDFF" parent="1" vertex="1">
          <mxGeometry x="868.5000000000007" y="780.0000000000025" width="40" height="20" as="geometry" />
        </mxCell>
        <mxCell id="155" value="" style="align=left;strokeColor=#DEEDFF" parent="1" vertex="1">
          <mxGeometry x="908.5000000000007" y="780.0000000000025" width="319.99999999999926" height="20" as="geometry" />
        </mxCell>
        <mxCell id="157" value="" style="strokeColor=#DEEDFF" parent="1" vertex="1">
          <mxGeometry x="1228.5000000000027" y="780.0000000000025" width="80.00000000000028" height="20" as="geometry" />
        </mxCell>
        <mxCell id="158" value="" style="strokeColor=#DEEDFF" parent="1" vertex="1">
          <mxGeometry x="1308.5000000000023" y="780.0000000000027" width="80.00000000000028" height="20" as="geometry" />
        </mxCell>
        <mxCell id="159" value="20" style="strokeColor=#DEEDFF" parent="1" vertex="1">
          <mxGeometry x="868.5000000000007" y="800.0000000000025" width="40" height="20" as="geometry" />
        </mxCell>
        <mxCell id="160" value="" style="align=left;strokeColor=#DEEDFF" parent="1" vertex="1">
          <mxGeometry x="908.5000000000007" y="800.0000000000025" width="319.9999999999993" height="20" as="geometry" />
        </mxCell>
        <mxCell id="162" value="" style="strokeColor=#DEEDFF" parent="1" vertex="1">
          <mxGeometry x="1228.5000000000027" y="800.0000000000025" width="80.00000000000028" height="20" as="geometry" />
        </mxCell>
        <mxCell id="163" value="" style="strokeColor=#DEEDFF" parent="1" vertex="1">
          <mxGeometry x="1308.5000000000023" y="800.0000000000027" width="80.00000000000028" height="20" as="geometry" />
        </mxCell>
        <mxCell id="164" value="21" style="strokeColor=#DEEDFF" parent="1" vertex="1">
          <mxGeometry x="868.5000000000007" y="820.0000000000028" width="40" height="20" as="geometry" />
        </mxCell>
        <mxCell id="165" value="" style="align=left;strokeColor=#DEEDFF" parent="1" vertex="1">
          <mxGeometry x="908.5000000000007" y="820.0000000000028" width="319.9999999999993" height="20" as="geometry" />
        </mxCell>
        <mxCell id="167" value="" style="strokeColor=#DEEDFF" parent="1" vertex="1">
          <mxGeometry x="1228.5000000000027" y="820.0000000000027" width="80.00000000000028" height="20" as="geometry" />
        </mxCell>
        <mxCell id="168" value="" style="strokeColor=#DEEDFF" parent="1" vertex="1">
          <mxGeometry x="1308.5000000000023" y="820.0000000000031" width="80.00000000000028" height="20" as="geometry" />
        </mxCell>
        <mxCell id="169" value="22" style="strokeColor=#DEEDFF" parent="1" vertex="1">
          <mxGeometry x="868.5000000000014" y="840.0000000000031" width="40" height="20" as="geometry" />
        </mxCell>
        <mxCell id="170" value="" style="align=left;strokeColor=#DEEDFF" parent="1" vertex="1">
          <mxGeometry x="908.5000000000014" y="840.0000000000031" width="319.99999999999864" height="20" as="geometry" />
        </mxCell>
        <mxCell id="172" value="" style="strokeColor=#DEEDFF" parent="1" vertex="1">
          <mxGeometry x="1228.5000000000034" y="840.000000000003" width="80.00000000000028" height="20" as="geometry" />
        </mxCell>
        <mxCell id="173" value="" style="strokeColor=#DEEDFF" parent="1" vertex="1">
          <mxGeometry x="1308.500000000003" y="840.0000000000033" width="80.00000000000028" height="20" as="geometry" />
        </mxCell>
        <mxCell id="221" value="" style="strokeColor=#DEEDFF" parent="1" vertex="1">
          <mxGeometry x="1386.500000000002" y="420.00000000002206" width="20" height="580" as="geometry" />
        </mxCell>
        <mxCell id="222" value="" style="strokeColor=#DEEDFF" parent="1" vertex="1">
          <mxGeometry x="1406.500000000002" y="420.0000000000257" width="20" height="580" as="geometry" />
        </mxCell>
        <mxCell id="223" value="" style="strokeColor=#DEEDFF" parent="1" vertex="1">
          <mxGeometry x="1426.500000000002" y="420.0000000000257" width="20" height="580" as="geometry" />
        </mxCell>
        <mxCell id="224" value="" style="strokeColor=#DEEDFF" parent="1" vertex="1">
          <mxGeometry x="1446.500000000002" y="420.0000000000257" width="20" height="580" as="geometry" />
        </mxCell>
        <mxCell id="225" value="" style="strokeColor=#DEEDFF" parent="1" vertex="1">
          <mxGeometry x="1466.5000000000016" y="420.0000000000257" width="20" height="580" as="geometry" />
        </mxCell>
        <mxCell id="226" value="" style="strokeColor=#DEEDFF;fillColor=#D4E1FF" parent="1" vertex="1">
          <mxGeometry x="1486.5000000000016" y="420.00000000002933" width="20" height="580" as="geometry" />
        </mxCell>
        <mxCell id="227" value="" style="strokeColor=#DEEDFF;fillColor=#D4E1FF" parent="1" vertex="1">
          <mxGeometry x="1506.5000000000016" y="420.00000000002933" width="20" height="580" as="geometry" />
        </mxCell>
        <mxCell id="228" value="" style="strokeColor=#DEEDFF" parent="1" vertex="1">
          <mxGeometry x="1526.5000000000016" y="420.00000000002933" width="20" height="580" as="geometry" />
        </mxCell>
        <mxCell id="229" value="" style="strokeColor=#DEEDFF" parent="1" vertex="1">
          <mxGeometry x="1546.5000000000016" y="420.00000000002933" width="20" height="580" as="geometry" />
        </mxCell>
        <mxCell id="230" value="" style="strokeColor=#DEEDFF" parent="1" vertex="1">
          <mxGeometry x="1566.5000000000016" y="420.00000000003297" width="20" height="580" as="geometry" />
        </mxCell>
        <mxCell id="231" value="" style="strokeColor=#DEEDFF" parent="1" vertex="1">
          <mxGeometry x="1586.5000000000016" y="420.00000000003297" width="20" height="580" as="geometry" />
        </mxCell>
        <mxCell id="232" value="" style="strokeColor=#DEEDFF" parent="1" vertex="1">
          <mxGeometry x="1606.5000000000016" y="420.00000000003297" width="20" height="580" as="geometry" />
        </mxCell>
        <mxCell id="233" value="" style="strokeColor=#DEEDFF;fillColor=#D4E1FF" parent="1" vertex="1">
          <mxGeometry x="1626.5000000000016" y="420.0000000000184" width="20" height="580" as="geometry" />
        </mxCell>
        <mxCell id="234" value="" style="strokeColor=#DEEDFF;fillColor=#D4E1FF" parent="1" vertex="1">
          <mxGeometry x="1646.5000000000016" y="420.00000000002206" width="20" height="580" as="geometry" />
        </mxCell>
        <mxCell id="235" value="" style="strokeColor=#DEEDFF" parent="1" vertex="1">
          <mxGeometry x="1666.5000000000016" y="420.00000000002206" width="20" height="580" as="geometry" />
        </mxCell>
        <mxCell id="236" value="" style="strokeColor=#DEEDFF" parent="1" vertex="1">
          <mxGeometry x="1686.5000000000016" y="420.00000000002206" width="20" height="580" as="geometry" />
        </mxCell>
        <mxCell id="237" value="" style="strokeColor=#DEEDFF" parent="1" vertex="1">
          <mxGeometry x="1706.5000000000016" y="420.00000000003297" width="20" height="580" as="geometry" />
        </mxCell>
        <mxCell id="238" value="" style="strokeColor=#DEEDFF" parent="1" vertex="1">
          <mxGeometry x="1726.5000000000016" y="420.0000000000366" width="20" height="580" as="geometry" />
        </mxCell>
        <mxCell id="239" value="" style="strokeColor=#DEEDFF" parent="1" vertex="1">
          <mxGeometry x="1746.5000000000016" y="420.0000000000366" width="20" height="580" as="geometry" />
        </mxCell>
        <mxCell id="240" value="" style="strokeColor=#DEEDFF;fillColor=#D4E1FF" parent="1" vertex="1">
          <mxGeometry x="1766.5000000000016" y="420.0000000000366" width="20" height="580" as="geometry" />
        </mxCell>
        <mxCell id="241" value="" style="strokeColor=#DEEDFF;fillColor=#D4E1FF" parent="1" vertex="1">
          <mxGeometry x="1786.5000000000018" y="420.0000000000366" width="20" height="580" as="geometry" />
        </mxCell>
        <mxCell id="2" value="Task Name" style="fillColor=#23445D;strokeColor=#FFFFFF;strokeWidth=2;fontColor=#FFFFFF;fontStyle=1" parent="1" vertex="1">
          <mxGeometry x="908.5" y="380" width="320" height="40" as="geometry" />
        </mxCell>
        <mxCell id="3" value="" style="fillColor=#23445D;strokeColor=#FFFFFF;strokeWidth=2;fontColor=#FFFFFF;fontStyle=1" parent="1" vertex="1">
          <mxGeometry x="868.5" y="380" width="40" height="40" as="geometry" />
        </mxCell>
        <mxCell id="13" value="Start" style="fillColor=#23445D;strokeColor=#FFFFFF;strokeWidth=2;fontColor=#FFFFFF;fontStyle=1" parent="1" vertex="1">
          <mxGeometry x="1228.5000000000018" y="380.00000000000006" width="80.00000000000006" height="40.00000000000001" as="geometry" />
        </mxCell>
        <mxCell id="14" value="ETA" style="fillColor=#23445D;strokeColor=#FFFFFF;strokeWidth=2;fontColor=#FFFFFF;fontStyle=1" parent="1" vertex="1">
          <mxGeometry x="1308.5000000000018" y="380.0000000000001" width="80.00000000000006" height="40.00000000000001" as="geometry" />
        </mxCell>
        <mxCell id="39" value="Apr 29" style="fillColor=#23445D;strokeColor=#FFFFFF;strokeWidth=2;fontColor=#FFFFFF;fontStyle=1" parent="1" vertex="1">
          <mxGeometry x="1386.5000000000018" y="380.00000000000006" width="140" height="20" as="geometry" />
        </mxCell>
        <mxCell id="40" value="M" style="fillColor=#23445D;strokeColor=#FFFFFF;strokeWidth=2;fontColor=#FFFFFF;fontStyle=1" parent="1" vertex="1">
          <mxGeometry x="1386.5000000000018" y="400.00000000000006" width="20" height="20" as="geometry" />
        </mxCell>
        <mxCell id="41" value="T" style="fillColor=#23445D;strokeColor=#FFFFFF;strokeWidth=2;fontColor=#FFFFFF;fontStyle=1" parent="1" vertex="1">
          <mxGeometry x="1406.5000000000018" y="400.00000000000006" width="20" height="20" as="geometry" />
        </mxCell>
        <mxCell id="42" value="W" style="fillColor=#23445D;strokeColor=#FFFFFF;strokeWidth=2;fontColor=#FFFFFF;fontStyle=1" parent="1" vertex="1">
          <mxGeometry x="1426.5000000000018" y="400.00000000000006" width="20" height="20" as="geometry" />
        </mxCell>
        <mxCell id="43" value="T" style="fillColor=#23445D;strokeColor=#FFFFFF;strokeWidth=2;fontColor=#FFFFFF;fontStyle=1" parent="1" vertex="1">
          <mxGeometry x="1446.5000000000018" y="400.00000000000006" width="20" height="20" as="geometry" />
        </mxCell>
        <mxCell id="44" value="F" style="fillColor=#23445D;strokeColor=#FFFFFF;strokeWidth=2;fontColor=#FFFFFF;fontStyle=1" parent="1" vertex="1">
          <mxGeometry x="1466.5000000000016" y="400" width="20" height="20" as="geometry" />
        </mxCell>
        <mxCell id="45" value="S" style="fillColor=#23445D;strokeColor=#FFFFFF;strokeWidth=2;fontColor=#FFFFFF;fontStyle=1" parent="1" vertex="1">
          <mxGeometry x="1486.5000000000016" y="400" width="20" height="20" as="geometry" />
        </mxCell>
        <mxCell id="46" value="S" style="fillColor=#23445D;strokeColor=#FFFFFF;strokeWidth=2;fontColor=#FFFFFF;fontStyle=1" parent="1" vertex="1">
          <mxGeometry x="1506.5000000000016" y="400" width="20" height="20" as="geometry" />
        </mxCell>
        <mxCell id="47" value="May 6 " style="fillColor=#23445D;strokeColor=#FFFFFF;strokeWidth=2;fontColor=#FFFFFF;fontStyle=1" parent="1" vertex="1">
          <mxGeometry x="1526.5000000000018" y="380" width="140" height="20" as="geometry" />
        </mxCell>
        <mxCell id="48" value="M" style="fillColor=#23445D;strokeColor=#FFFFFF;strokeWidth=2;fontColor=#FFFFFF;fontStyle=1" parent="1" vertex="1">
          <mxGeometry x="1526.5000000000018" y="400" width="20" height="20" as="geometry" />
        </mxCell>
        <mxCell id="49" value="T" style="fillColor=#23445D;strokeColor=#FFFFFF;strokeWidth=2;fontColor=#FFFFFF;fontStyle=1" parent="1" vertex="1">
          <mxGeometry x="1546.5000000000018" y="400" width="20" height="20" as="geometry" />
        </mxCell>
        <mxCell id="50" value="W" style="fillColor=#23445D;strokeColor=#FFFFFF;strokeWidth=2;fontColor=#FFFFFF;fontStyle=1" parent="1" vertex="1">
          <mxGeometry x="1566.5000000000018" y="400" width="20" height="20" as="geometry" />
        </mxCell>
        <mxCell id="51" value="T" style="fillColor=#23445D;strokeColor=#FFFFFF;strokeWidth=2;fontColor=#FFFFFF;fontStyle=1" parent="1" vertex="1">
          <mxGeometry x="1586.5000000000018" y="400" width="20" height="20" as="geometry" />
        </mxCell>
        <mxCell id="52" value="F" style="fillColor=#23445D;strokeColor=#FFFFFF;strokeWidth=2;fontColor=#FFFFFF;fontStyle=1" parent="1" vertex="1">
          <mxGeometry x="1606.5000000000016" y="400" width="20" height="20" as="geometry" />
        </mxCell>
        <mxCell id="53" value="S" style="fillColor=#23445D;strokeColor=#FFFFFF;strokeWidth=2;fontColor=#FFFFFF;fontStyle=1" parent="1" vertex="1">
          <mxGeometry x="1626.5000000000016" y="400" width="20" height="20" as="geometry" />
        </mxCell>
        <mxCell id="54" value="S" style="fillColor=#23445D;strokeColor=#FFFFFF;strokeWidth=2;fontColor=#FFFFFF;fontStyle=1" parent="1" vertex="1">
          <mxGeometry x="1646.5000000000016" y="400" width="20" height="20" as="geometry" />
        </mxCell>
        <mxCell id="55" value="May 13" style="fillColor=#23445D;strokeColor=#FFFFFF;strokeWidth=2;fontColor=#FFFFFF;fontStyle=1" parent="1" vertex="1">
          <mxGeometry x="1666.5000000000018" y="380.0000000000001" width="140" height="20" as="geometry" />
        </mxCell>
        <mxCell id="56" value="M" style="fillColor=#23445D;strokeColor=#FFFFFF;strokeWidth=2;fontColor=#FFFFFF;fontStyle=1" parent="1" vertex="1">
          <mxGeometry x="1666.5000000000018" y="400.0000000000001" width="20" height="20" as="geometry" />
        </mxCell>
        <mxCell id="57" value="T" style="fillColor=#23445D;strokeColor=#FFFFFF;strokeWidth=2;fontColor=#FFFFFF;fontStyle=1" parent="1" vertex="1">
          <mxGeometry x="1686.5000000000018" y="400.0000000000001" width="20" height="20" as="geometry" />
        </mxCell>
        <mxCell id="58" value="W" style="fillColor=#23445D;strokeColor=#FFFFFF;strokeWidth=2;fontColor=#FFFFFF;fontStyle=1" parent="1" vertex="1">
          <mxGeometry x="1706.5000000000018" y="400.0000000000001" width="20" height="20" as="geometry" />
        </mxCell>
        <mxCell id="59" value="T" style="fillColor=#23445D;strokeColor=#FFFFFF;strokeWidth=2;fontColor=#FFFFFF;fontStyle=1" parent="1" vertex="1">
          <mxGeometry x="1726.5000000000018" y="400.0000000000001" width="20" height="20" as="geometry" />
        </mxCell>
        <mxCell id="60" value="F" style="fillColor=#23445D;strokeColor=#FFFFFF;strokeWidth=2;fontColor=#FFFFFF;fontStyle=1" parent="1" vertex="1">
          <mxGeometry x="1746.5000000000016" y="400.0000000000001" width="20" height="20" as="geometry" />
        </mxCell>
        <mxCell id="61" value="S" style="fillColor=#23445D;strokeColor=#FFFFFF;strokeWidth=2;fontColor=#FFFFFF;fontStyle=1" parent="1" vertex="1">
          <mxGeometry x="1766.5000000000016" y="400.0000000000001" width="20" height="20" as="geometry" />
        </mxCell>
        <mxCell id="62" value="S" style="fillColor=#23445D;strokeColor=#FFFFFF;strokeWidth=2;fontColor=#FFFFFF;fontStyle=1" parent="1" vertex="1">
          <mxGeometry x="1786.5000000000016" y="400.0000000000001" width="20" height="20" as="geometry" />
        </mxCell>
        <mxCell id="Jeid9guDCt3J0gndHfBI-298" value="24" style="strokeColor=#DEEDFF" parent="1" vertex="1">
          <mxGeometry x="870.000000000001" y="880.0000000000036" width="40" height="20" as="geometry" />
        </mxCell>
        <mxCell id="Jeid9guDCt3J0gndHfBI-299" value="Accounts Database" style="align=left;strokeColor=#DEEDFF" parent="1" vertex="1">
          <mxGeometry x="910.000000000001" y="880.0000000000036" width="319.999999999999" height="20" as="geometry" />
        </mxCell>
        <mxCell id="Jeid9guDCt3J0gndHfBI-301" value="Apr 29" style="strokeColor=#DEEDFF" parent="1" vertex="1">
          <mxGeometry x="1230.0000000000032" y="880.0000000000035" width="80.00000000000028" height="20" as="geometry" />
        </mxCell>
        <mxCell id="Jeid9guDCt3J0gndHfBI-302" value="May 1" style="strokeColor=#DEEDFF" parent="1" vertex="1">
          <mxGeometry x="1310.0000000000027" y="880.0000000000039" width="80.00000000000028" height="20" as="geometry" />
        </mxCell>
        <mxCell id="Jeid9guDCt3J0gndHfBI-303" value="25" style="strokeColor=#DEEDFF" parent="1" vertex="1">
          <mxGeometry x="870.000000000001" y="900.0000000000036" width="40" height="20" as="geometry" />
        </mxCell>
        <mxCell id="Jeid9guDCt3J0gndHfBI-304" value="survey Savefile" style="align=left;strokeColor=#DEEDFF" parent="1" vertex="1">
          <mxGeometry x="910.000000000001" y="900.0000000000036" width="319.999999999999" height="20" as="geometry" />
        </mxCell>
        <mxCell id="Jeid9guDCt3J0gndHfBI-306" value="Apr 29" style="strokeColor=#DEEDFF" parent="1" vertex="1">
          <mxGeometry x="1230.0000000000032" y="900.0000000000036" width="80.00000000000028" height="20" as="geometry" />
        </mxCell>
        <mxCell id="Jeid9guDCt3J0gndHfBI-307" value="May 3" style="strokeColor=#DEEDFF" parent="1" vertex="1">
          <mxGeometry x="1310.0000000000027" y="900.0000000000039" width="80.00000000000028" height="20" as="geometry" />
        </mxCell>
        <mxCell id="Jeid9guDCt3J0gndHfBI-308" value="26" style="strokeColor=#DEEDFF" parent="1" vertex="1">
          <mxGeometry x="870.000000000001" y="920.0000000000036" width="40" height="20" as="geometry" />
        </mxCell>
        <mxCell id="Jeid9guDCt3J0gndHfBI-309" value="Documentation" style="align=left;strokeColor=#DEEDFF" parent="1" vertex="1">
          <mxGeometry x="910.000000000001" y="920.0000000000036" width="319.999999999999" height="20" as="geometry" />
        </mxCell>
        <mxCell id="Jeid9guDCt3J0gndHfBI-311" value="Apr 29" style="strokeColor=#DEEDFF" parent="1" vertex="1">
          <mxGeometry x="1230.0000000000032" y="920.0000000000036" width="80.00000000000028" height="20" as="geometry" />
        </mxCell>
        <mxCell id="Jeid9guDCt3J0gndHfBI-312" value="May 4" style="strokeColor=#DEEDFF" parent="1" vertex="1">
          <mxGeometry x="1310.0000000000027" y="920.0000000000039" width="80.00000000000028" height="20" as="geometry" />
        </mxCell>
        <mxCell id="Jeid9guDCt3J0gndHfBI-313" value="27" style="strokeColor=#DEEDFF" parent="1" vertex="1">
          <mxGeometry x="870.0000000000011" y="940.0000000000034" width="40" height="20" as="geometry" />
        </mxCell>
        <mxCell id="Jeid9guDCt3J0gndHfBI-314" value="" style="align=left;strokeColor=#DEEDFF" parent="1" vertex="1">
          <mxGeometry x="910.0000000000011" y="940.0000000000034" width="319.99999999999886" height="20" as="geometry" />
        </mxCell>
        <mxCell id="Jeid9guDCt3J0gndHfBI-316" value="" style="strokeColor=#DEEDFF" parent="1" vertex="1">
          <mxGeometry x="1230.0000000000032" y="940.0000000000032" width="80.00000000000028" height="20" as="geometry" />
        </mxCell>
        <mxCell id="Jeid9guDCt3J0gndHfBI-317" value="" style="strokeColor=#DEEDFF" parent="1" vertex="1">
          <mxGeometry x="1310.0000000000027" y="940.0000000000036" width="80.00000000000028" height="20" as="geometry" />
        </mxCell>
        <mxCell id="Jeid9guDCt3J0gndHfBI-318" value="28" style="strokeColor=#DEEDFF" parent="1" vertex="1">
          <mxGeometry x="870.000000000001" y="960.0000000000034" width="40" height="20" as="geometry" />
        </mxCell>
        <mxCell id="Jeid9guDCt3J0gndHfBI-319" value="" style="align=left;strokeColor=#DEEDFF" parent="1" vertex="1">
          <mxGeometry x="910.000000000001" y="960.0000000000034" width="319.999999999999" height="20" as="geometry" />
        </mxCell>
        <mxCell id="Jeid9guDCt3J0gndHfBI-321" value="" style="strokeColor=#DEEDFF" parent="1" vertex="1">
          <mxGeometry x="1230.0000000000032" y="960.0000000000032" width="80.00000000000028" height="20" as="geometry" />
        </mxCell>
        <mxCell id="Jeid9guDCt3J0gndHfBI-322" value="" style="strokeColor=#DEEDFF" parent="1" vertex="1">
          <mxGeometry x="1310.0000000000027" y="960.0000000000036" width="80.00000000000028" height="20" as="geometry" />
        </mxCell>
        <mxCell id="Jeid9guDCt3J0gndHfBI-323" value="29" style="strokeColor=#DEEDFF" parent="1" vertex="1">
          <mxGeometry x="870.000000000001" y="980.0000000000036" width="40" height="20" as="geometry" />
        </mxCell>
        <mxCell id="Jeid9guDCt3J0gndHfBI-324" value="" style="align=left;strokeColor=#DEEDFF" parent="1" vertex="1">
          <mxGeometry x="910.000000000001" y="980.0000000000036" width="319.999999999999" height="20" as="geometry" />
        </mxCell>
        <mxCell id="Jeid9guDCt3J0gndHfBI-326" value="" style="strokeColor=#DEEDFF" parent="1" vertex="1">
          <mxGeometry x="1230.0000000000032" y="980.0000000000036" width="80.00000000000028" height="20" as="geometry" />
        </mxCell>
        <mxCell id="Jeid9guDCt3J0gndHfBI-327" value="" style="strokeColor=#DEEDFF" parent="1" vertex="1">
          <mxGeometry x="1310.0000000000027" y="980.0000000000039" width="80.00000000000028" height="20" as="geometry" />
        </mxCell>
        <mxCell id="Jeid9guDCt3J0gndHfBI-395" value="23" style="strokeColor=#DEEDFF;fillColor=#CCE5FF" parent="1" vertex="1">
          <mxGeometry x="869.9999999999995" y="860.000000000002" width="40" height="20" as="geometry" />
        </mxCell>
        <mxCell id="Jeid9guDCt3J0gndHfBI-396" value="file-savers" style="align=left;strokeColor=#DEEDFF;fillColor=#CCE5FF" parent="1" vertex="1">
          <mxGeometry x="909.9999999999995" y="860.000000000002" width="320.0000000000004" height="20" as="geometry" />
        </mxCell>
        <mxCell id="Jeid9guDCt3J0gndHfBI-398" value="" style="strokeColor=#DEEDFF;fillColor=#CCE5FF" parent="1" vertex="1">
          <mxGeometry x="1230.0000000000016" y="860.000000000002" width="80.00000000000028" height="20" as="geometry" />
        </mxCell>
        <mxCell id="Jeid9guDCt3J0gndHfBI-399" value="" style="strokeColor=#DEEDFF;fillColor=#CCE5FF" parent="1" vertex="1">
          <mxGeometry x="1310.0000000000011" y="860.0000000000023" width="80.00000000000028" height="20" as="geometry" />
        </mxCell>
        <mxCell id="Jeid9guDCt3J0gndHfBI-404" value="" style="strokeColor=#DEEDFF" parent="1" vertex="1">
          <mxGeometry x="1806.5000000000016" y="420.00000000002206" width="20" height="580" as="geometry" />
        </mxCell>
        <mxCell id="Jeid9guDCt3J0gndHfBI-405" value="" style="strokeColor=#DEEDFF" parent="1" vertex="1">
          <mxGeometry x="1826.5000000000016" y="420.00000000002206" width="20" height="580" as="geometry" />
        </mxCell>
        <mxCell id="Jeid9guDCt3J0gndHfBI-406" value="" style="strokeColor=#DEEDFF" parent="1" vertex="1">
          <mxGeometry x="1846.5000000000016" y="420.00000000003297" width="20" height="580" as="geometry" />
        </mxCell>
        <mxCell id="Jeid9guDCt3J0gndHfBI-407" value="" style="strokeColor=#DEEDFF" parent="1" vertex="1">
          <mxGeometry x="1866.5000000000016" y="420.0000000000366" width="20" height="580" as="geometry" />
        </mxCell>
        <mxCell id="Jeid9guDCt3J0gndHfBI-408" value="" style="strokeColor=#DEEDFF" parent="1" vertex="1">
          <mxGeometry x="1886.5000000000016" y="420.0000000000366" width="20" height="580" as="geometry" />
        </mxCell>
        <mxCell id="Jeid9guDCt3J0gndHfBI-409" value="" style="strokeColor=#DEEDFF;fillColor=#D4E1FF" parent="1" vertex="1">
          <mxGeometry x="1906.5000000000016" y="420.0000000000366" width="20" height="580" as="geometry" />
        </mxCell>
        <mxCell id="Jeid9guDCt3J0gndHfBI-410" value="" style="strokeColor=#DEEDFF;fillColor=#D4E1FF" parent="1" vertex="1">
          <mxGeometry x="1926.5000000000018" y="420.0000000000366" width="20" height="580" as="geometry" />
        </mxCell>
        <mxCell id="Jeid9guDCt3J0gndHfBI-411" value="May 20" style="fillColor=#23445D;strokeColor=#FFFFFF;strokeWidth=2;fontColor=#FFFFFF;fontStyle=1" parent="1" vertex="1">
          <mxGeometry x="1806.5000000000018" y="380.0000000000001" width="140" height="20" as="geometry" />
        </mxCell>
        <mxCell id="Jeid9guDCt3J0gndHfBI-412" value="M" style="fillColor=#23445D;strokeColor=#FFFFFF;strokeWidth=2;fontColor=#FFFFFF;fontStyle=1" parent="1" vertex="1">
          <mxGeometry x="1806.5000000000018" y="400.0000000000001" width="20" height="20" as="geometry" />
        </mxCell>
        <mxCell id="Jeid9guDCt3J0gndHfBI-413" value="T" style="fillColor=#23445D;strokeColor=#FFFFFF;strokeWidth=2;fontColor=#FFFFFF;fontStyle=1" parent="1" vertex="1">
          <mxGeometry x="1826.5000000000018" y="400.0000000000001" width="20" height="20" as="geometry" />
        </mxCell>
        <mxCell id="Jeid9guDCt3J0gndHfBI-414" value="W" style="fillColor=#23445D;strokeColor=#FFFFFF;strokeWidth=2;fontColor=#FFFFFF;fontStyle=1" parent="1" vertex="1">
          <mxGeometry x="1846.5000000000018" y="400.0000000000001" width="20" height="20" as="geometry" />
        </mxCell>
        <mxCell id="Jeid9guDCt3J0gndHfBI-415" value="T" style="fillColor=#23445D;strokeColor=#FFFFFF;strokeWidth=2;fontColor=#FFFFFF;fontStyle=1" parent="1" vertex="1">
          <mxGeometry x="1866.5000000000018" y="400.0000000000001" width="20" height="20" as="geometry" />
        </mxCell>
        <mxCell id="Jeid9guDCt3J0gndHfBI-416" value="F" style="fillColor=#23445D;strokeColor=#FFFFFF;strokeWidth=2;fontColor=#FFFFFF;fontStyle=1" parent="1" vertex="1">
          <mxGeometry x="1886.5000000000016" y="400.0000000000001" width="20" height="20" as="geometry" />
        </mxCell>
        <mxCell id="Jeid9guDCt3J0gndHfBI-417" value="S" style="fillColor=#23445D;strokeColor=#FFFFFF;strokeWidth=2;fontColor=#FFFFFF;fontStyle=1" parent="1" vertex="1">
          <mxGeometry x="1906.5000000000016" y="400.0000000000001" width="20" height="20" as="geometry" />
        </mxCell>
        <mxCell id="Jeid9guDCt3J0gndHfBI-418" value="S" style="fillColor=#23445D;strokeColor=#FFFFFF;strokeWidth=2;fontColor=#FFFFFF;fontStyle=1" parent="1" vertex="1">
          <mxGeometry x="1926.5000000000016" y="400.0000000000001" width="20" height="20" as="geometry" />
        </mxCell>
        <mxCell id="Jeid9guDCt3J0gndHfBI-419" value="" style="strokeColor=#DEEDFF" parent="1" vertex="1">
          <mxGeometry x="1946.5000000000016" y="420.00000000002206" width="20" height="580" as="geometry" />
        </mxCell>
        <mxCell id="Jeid9guDCt3J0gndHfBI-420" value="" style="strokeColor=#DEEDFF" parent="1" vertex="1">
          <mxGeometry x="1966.5000000000016" y="420.00000000002206" width="20" height="580" as="geometry" />
        </mxCell>
        <mxCell id="Jeid9guDCt3J0gndHfBI-421" value="" style="strokeColor=#DEEDFF" parent="1" vertex="1">
          <mxGeometry x="1986.5000000000016" y="420.00000000003297" width="20" height="580" as="geometry" />
        </mxCell>
        <mxCell id="Jeid9guDCt3J0gndHfBI-422" value="" style="strokeColor=#DEEDFF" parent="1" vertex="1">
          <mxGeometry x="2006.5000000000016" y="420.0000000000366" width="20" height="580" as="geometry" />
        </mxCell>
        <mxCell id="Jeid9guDCt3J0gndHfBI-423" value="" style="strokeColor=#DEEDFF" parent="1" vertex="1">
          <mxGeometry x="2026.5000000000016" y="420.0000000000366" width="20" height="580" as="geometry" />
        </mxCell>
        <mxCell id="Jeid9guDCt3J0gndHfBI-424" value="" style="strokeColor=#DEEDFF;fillColor=#D4E1FF" parent="1" vertex="1">
          <mxGeometry x="2046.5000000000016" y="420.0000000000366" width="20" height="580" as="geometry" />
        </mxCell>
        <mxCell id="Jeid9guDCt3J0gndHfBI-425" value="" style="strokeColor=#DEEDFF;fillColor=#D4E1FF" parent="1" vertex="1">
          <mxGeometry x="2066.500000000002" y="420.0000000000366" width="20" height="580" as="geometry" />
        </mxCell>
        <mxCell id="Jeid9guDCt3J0gndHfBI-426" value="May 27" style="fillColor=#23445D;strokeColor=#FFFFFF;strokeWidth=2;fontColor=#FFFFFF;fontStyle=1" parent="1" vertex="1">
          <mxGeometry x="1946.5000000000018" y="380.0000000000001" width="140" height="20" as="geometry" />
        </mxCell>
        <mxCell id="Jeid9guDCt3J0gndHfBI-427" value="M" style="fillColor=#23445D;strokeColor=#FFFFFF;strokeWidth=2;fontColor=#FFFFFF;fontStyle=1" parent="1" vertex="1">
          <mxGeometry x="1946.5000000000018" y="400.0000000000001" width="20" height="20" as="geometry" />
        </mxCell>
        <mxCell id="Jeid9guDCt3J0gndHfBI-428" value="T" style="fillColor=#23445D;strokeColor=#FFFFFF;strokeWidth=2;fontColor=#FFFFFF;fontStyle=1" parent="1" vertex="1">
          <mxGeometry x="1966.5000000000018" y="400.0000000000001" width="20" height="20" as="geometry" />
        </mxCell>
        <mxCell id="Jeid9guDCt3J0gndHfBI-429" value="W" style="fillColor=#23445D;strokeColor=#FFFFFF;strokeWidth=2;fontColor=#FFFFFF;fontStyle=1" parent="1" vertex="1">
          <mxGeometry x="1986.5000000000018" y="400.0000000000001" width="20" height="20" as="geometry" />
        </mxCell>
        <mxCell id="Jeid9guDCt3J0gndHfBI-430" value="T" style="fillColor=#23445D;strokeColor=#FFFFFF;strokeWidth=2;fontColor=#FFFFFF;fontStyle=1" parent="1" vertex="1">
          <mxGeometry x="2006.5000000000018" y="400.0000000000001" width="20" height="20" as="geometry" />
        </mxCell>
        <mxCell id="Jeid9guDCt3J0gndHfBI-431" value="F" style="fillColor=#23445D;strokeColor=#FFFFFF;strokeWidth=2;fontColor=#FFFFFF;fontStyle=1" parent="1" vertex="1">
          <mxGeometry x="2026.5000000000016" y="400.0000000000001" width="20" height="20" as="geometry" />
        </mxCell>
        <mxCell id="Jeid9guDCt3J0gndHfBI-432" value="S" style="fillColor=#23445D;strokeColor=#FFFFFF;strokeWidth=2;fontColor=#FFFFFF;fontStyle=1" parent="1" vertex="1">
          <mxGeometry x="2046.5000000000016" y="400.0000000000001" width="20" height="20" as="geometry" />
        </mxCell>
        <mxCell id="Jeid9guDCt3J0gndHfBI-433" value="S" style="fillColor=#23445D;strokeColor=#FFFFFF;strokeWidth=2;fontColor=#FFFFFF;fontStyle=1" parent="1" vertex="1">
          <mxGeometry x="2066.500000000002" y="400.0000000000001" width="20" height="20" as="geometry" />
        </mxCell>
        <mxCell id="Jeid9guDCt3J0gndHfBI-434" value="" style="strokeColor=#DEEDFF" parent="1" vertex="1">
          <mxGeometry x="2086.500000000002" y="420.00000000002206" width="20" height="580" as="geometry" />
        </mxCell>
        <mxCell id="Jeid9guDCt3J0gndHfBI-435" value="" style="strokeColor=#DEEDFF" parent="1" vertex="1">
          <mxGeometry x="2106.500000000002" y="420.00000000002206" width="20" height="580" as="geometry" />
        </mxCell>
        <mxCell id="Jeid9guDCt3J0gndHfBI-436" value="" style="strokeColor=#DEEDFF" parent="1" vertex="1">
          <mxGeometry x="2126.500000000002" y="420.00000000003297" width="20" height="580" as="geometry" />
        </mxCell>
        <mxCell id="Jeid9guDCt3J0gndHfBI-437" value="" style="strokeColor=#DEEDFF" parent="1" vertex="1">
          <mxGeometry x="2146.500000000002" y="420.0000000000366" width="20" height="580" as="geometry" />
        </mxCell>
        <mxCell id="Jeid9guDCt3J0gndHfBI-438" value="" style="strokeColor=#DEEDFF" parent="1" vertex="1">
          <mxGeometry x="2166.500000000002" y="420.0000000000366" width="20" height="580" as="geometry" />
        </mxCell>
        <mxCell id="Jeid9guDCt3J0gndHfBI-439" value="" style="strokeColor=#DEEDFF;fillColor=#D4E1FF" parent="1" vertex="1">
          <mxGeometry x="2186.500000000002" y="420.0000000000366" width="20" height="580" as="geometry" />
        </mxCell>
        <mxCell id="Jeid9guDCt3J0gndHfBI-440" value="" style="strokeColor=#DEEDFF;fillColor=#D4E1FF" parent="1" vertex="1">
          <mxGeometry x="2206.500000000002" y="420.0000000000366" width="20" height="580" as="geometry" />
        </mxCell>
        <mxCell id="Jeid9guDCt3J0gndHfBI-441" value="Jun 3" style="fillColor=#23445D;strokeColor=#FFFFFF;strokeWidth=2;fontColor=#FFFFFF;fontStyle=1" parent="1" vertex="1">
          <mxGeometry x="2086.500000000002" y="380.0000000000001" width="140" height="20" as="geometry" />
        </mxCell>
        <mxCell id="Jeid9guDCt3J0gndHfBI-442" value="M" style="fillColor=#23445D;strokeColor=#FFFFFF;strokeWidth=2;fontColor=#FFFFFF;fontStyle=1" parent="1" vertex="1">
          <mxGeometry x="2086.500000000002" y="400.0000000000001" width="20" height="20" as="geometry" />
        </mxCell>
        <mxCell id="Jeid9guDCt3J0gndHfBI-443" value="T" style="fillColor=#23445D;strokeColor=#FFFFFF;strokeWidth=2;fontColor=#FFFFFF;fontStyle=1" parent="1" vertex="1">
          <mxGeometry x="2106.500000000002" y="400.0000000000001" width="20" height="20" as="geometry" />
        </mxCell>
        <mxCell id="Jeid9guDCt3J0gndHfBI-444" value="W" style="fillColor=#23445D;strokeColor=#FFFFFF;strokeWidth=2;fontColor=#FFFFFF;fontStyle=1" parent="1" vertex="1">
          <mxGeometry x="2126.500000000002" y="400.0000000000001" width="20" height="20" as="geometry" />
        </mxCell>
        <mxCell id="Jeid9guDCt3J0gndHfBI-445" value="T" style="fillColor=#23445D;strokeColor=#FFFFFF;strokeWidth=2;fontColor=#FFFFFF;fontStyle=1" parent="1" vertex="1">
          <mxGeometry x="2146.500000000002" y="400.0000000000001" width="20" height="20" as="geometry" />
        </mxCell>
        <mxCell id="Jeid9guDCt3J0gndHfBI-446" value="F" style="fillColor=#23445D;strokeColor=#FFFFFF;strokeWidth=2;fontColor=#FFFFFF;fontStyle=1" parent="1" vertex="1">
          <mxGeometry x="2166.500000000002" y="400.0000000000001" width="20" height="20" as="geometry" />
        </mxCell>
        <mxCell id="Jeid9guDCt3J0gndHfBI-447" value="S" style="fillColor=#23445D;strokeColor=#FFFFFF;strokeWidth=2;fontColor=#FFFFFF;fontStyle=1" parent="1" vertex="1">
          <mxGeometry x="2186.500000000002" y="400.0000000000001" width="20" height="20" as="geometry" />
        </mxCell>
        <mxCell id="Jeid9guDCt3J0gndHfBI-448" value="S" style="fillColor=#23445D;strokeColor=#FFFFFF;strokeWidth=2;fontColor=#FFFFFF;fontStyle=1" parent="1" vertex="1">
          <mxGeometry x="2206.500000000002" y="400.0000000000001" width="20" height="20" as="geometry" />
        </mxCell>
        <mxCell id="254" value="" style="shape=mxgraph.flowchart.process;fillColor=#AE4132;strokeColor=#000000;strokeWidth=2;opacity=100" parent="1" vertex="1">
          <mxGeometry x="1390" y="420" width="835" height="20" as="geometry" />
        </mxCell>
        <mxCell id="Jeid9guDCt3J0gndHfBI-514" value="Individual Project Netbeans C++ Project progress report" style="text;whiteSpace=wrap;rotation=90;verticalAlign=middle;" parent="1" vertex="1">
          <mxGeometry x="1364.38" y="219.63" width="302.25" height="20" as="geometry" />
        </mxCell>
        <mxCell id="Jeid9guDCt3J0gndHfBI-515" value="HTML/CSS Implementation" style="text;whiteSpace=wrap;verticalAlign=middle;rotation=90;" parent="1" vertex="1">
          <mxGeometry x="1576.5" y="297.5" width="156.5" height="20" as="geometry" />
        </mxCell>
        <mxCell id="Jeid9guDCt3J0gndHfBI-516" value="Javascript and PHP Implementation" style="text;whiteSpace=wrap;rotation=90;verticalAlign=middle;" parent="1" vertex="1">
          <mxGeometry x="1695.63" y="271.12" width="199.31" height="20" as="geometry" />
        </mxCell>
        <mxCell id="Jeid9guDCt3J0gndHfBI-517" value="Database" style="text;whiteSpace=wrap;rotation=90;verticalAlign=middle;" parent="1" vertex="1">
          <mxGeometry x="1908.34" y="343.73" width="54.31" height="20" as="geometry" />
        </mxCell>
        <mxCell id="Jeid9guDCt3J0gndHfBI-518" value="Testing" style="text;whiteSpace=wrap;rotation=90;verticalAlign=middle;" parent="1" vertex="1">
          <mxGeometry x="2050.25" y="344.5" width="50.5" height="20" as="geometry" />
        </mxCell>
        <mxCell id="Jeid9guDCt3J0gndHfBI-526" value="Group and Individual Final Projects Due" style="text;whiteSpace=wrap;rotation=90;verticalAlign=middle;" parent="1" vertex="1">
          <mxGeometry x="2105.5" y="263" width="220" height="20" as="geometry" />
        </mxCell>
        <mxCell id="uVJO5Seux2hrpMJE8Qfh-285" value="" style="shape=mxgraph.flowchart.process;fillColor=#9933FF;strokeColor=default;strokeWidth=2;opacity=75" parent="1" vertex="1">
          <mxGeometry x="1510" y="560" width="715" height="20" as="geometry" />
        </mxCell>
        <mxCell id="-Dfqq9dImMUQ_tp1cE9Q-291" value="" style="strokeColor=#DEEDFF;fillColor=#CCE5FF" parent="1" vertex="1">
          <mxGeometry x="950" y="720" width="1276.5" height="19" as="geometry" />
        </mxCell>
        <mxCell id="-Dfqq9dImMUQ_tp1cE9Q-289" value="" style="strokeColor=#DEEDFF;fillColor=#CCE5FF" parent="1" vertex="1">
          <mxGeometry x="950" y="860" width="1276.5" height="20" as="geometry" />
        </mxCell>
        <mxCell id="-Dfqq9dImMUQ_tp1cE9Q-292" value="" style="strokeColor=#DEEDFF;fillColor=#CCE5FF" parent="1" vertex="1">
          <mxGeometry x="950" y="580" width="1276.5" height="19" as="geometry" />
        </mxCell>
        <mxCell id="4QV8i8MhkSavocztaMN9-254" value="" style="shape=mxgraph.flowchart.process;fillColor=#9933FF;strokeColor=default;strokeWidth=2;opacity=75" vertex="1" parent="1">
          <mxGeometry x="1388.5" y="460" width="20" height="20" as="geometry" />
        </mxCell>
        <mxCell id="4QV8i8MhkSavocztaMN9-255" value="" style="shape=mxgraph.flowchart.process;fillColor=#9933FF;strokeColor=default;strokeWidth=2;opacity=75" vertex="1" parent="1">
          <mxGeometry x="1388.5" y="480" width="41.5" height="20" as="geometry" />
        </mxCell>
        <mxCell id="4QV8i8MhkSavocztaMN9-256" value="" style="shape=mxgraph.flowchart.process;fillColor=#9933FF;strokeColor=default;strokeWidth=2;opacity=75" vertex="1" parent="1">
          <mxGeometry x="1388.5" y="600" width="41.5" height="20" as="geometry" />
        </mxCell>
        <mxCell id="4QV8i8MhkSavocztaMN9-257" value="" style="shape=mxgraph.flowchart.process;fillColor=#9933FF;strokeColor=default;strokeWidth=2;opacity=75" vertex="1" parent="1">
          <mxGeometry x="1408.5" y="500" width="41.5" height="20" as="geometry" />
        </mxCell>
        <mxCell id="4QV8i8MhkSavocztaMN9-258" value="" style="shape=mxgraph.flowchart.process;fillColor=#9933FF;strokeColor=default;strokeWidth=2;opacity=75" vertex="1" parent="1">
          <mxGeometry x="1426.5" y="520" width="63.5" height="20" as="geometry" />
        </mxCell>
        <mxCell id="4QV8i8MhkSavocztaMN9-259" value="" style="shape=mxgraph.flowchart.process;fillColor=#9933FF;strokeColor=default;strokeWidth=2;opacity=75" vertex="1" parent="1">
          <mxGeometry x="1510" y="540" width="20" height="20" as="geometry" />
        </mxCell>
        <mxCell id="4QV8i8MhkSavocztaMN9-260" value="" style="shape=mxgraph.flowchart.process;fillColor=#9933FF;strokeColor=default;strokeWidth=2;opacity=75" vertex="1" parent="1">
          <mxGeometry x="1408.5" y="620" width="41.5" height="20" as="geometry" />
        </mxCell>
        <mxCell id="4QV8i8MhkSavocztaMN9-262" value="" style="shape=mxgraph.flowchart.process;fillColor=#9933FF;strokeColor=default;strokeWidth=2;opacity=75" vertex="1" parent="1">
          <mxGeometry x="1426.5" y="640" width="43.5" height="20" as="geometry" />
        </mxCell>
        <mxCell id="4QV8i8MhkSavocztaMN9-263" value="" style="shape=mxgraph.flowchart.process;fillColor=#9933FF;strokeColor=default;strokeWidth=2;opacity=75" vertex="1" parent="1">
          <mxGeometry x="1430" y="739" width="40" height="20" as="geometry" />
        </mxCell>
        <mxCell id="4QV8i8MhkSavocztaMN9-264" value="" style="shape=mxgraph.flowchart.process;fillColor=#9933FF;strokeColor=default;strokeWidth=2;opacity=75" vertex="1" parent="1">
          <mxGeometry x="1450" y="760" width="40" height="20" as="geometry" />
        </mxCell>
        <mxCell id="4QV8i8MhkSavocztaMN9-265" value="" style="shape=mxgraph.flowchart.process;fillColor=#9933FF;strokeColor=default;strokeWidth=2;opacity=75" vertex="1" parent="1">
          <mxGeometry x="1390" y="880" width="60" height="20" as="geometry" />
        </mxCell>
        <mxCell id="4QV8i8MhkSavocztaMN9-266" value="" style="shape=mxgraph.flowchart.process;fillColor=#9933FF;strokeColor=default;strokeWidth=2;opacity=75" vertex="1" parent="1">
          <mxGeometry x="1390" y="900" width="100" height="20" as="geometry" />
        </mxCell>
        <mxCell id="4QV8i8MhkSavocztaMN9-267" value="" style="shape=mxgraph.flowchart.process;fillColor=#9933FF;strokeColor=default;strokeWidth=2;opacity=75" vertex="1" parent="1">
          <mxGeometry x="1390" y="920" width="120" height="20" as="geometry" />
        </mxCell>
      </root>
    </mxGraphModel>
  </diagram>
</mxfile>
